<?xml version="1.0" encoding="UTF-8"?>
<svg id="_Слой_1" data-name="Слой 1" xmlns="http://www.w3.org/2000/svg" viewBox="0 0 1512.78 1489.08">
  <defs>
    <style>
      .cls-1 {
        fill: #fff;
        fill-rule: evenodd;
      }
    </style>
  </defs>
  <path class="cls-1" d="M1512.75,0h-228.46v1.48c0,70.97-13.29,137.52-39.9,198.14-26.61,61.39-63.58,114.59-110.17,159.72-46.58,45.1-102.04,79.84-167.11,105.71-65.1,25.91-135.33,38.42-210.72,38.42s-145.59-12.55-209.98-38.42c-64.33-25.87-119.78-60.65-167.11-105.71-47.32-45.1-83.52-98.33-110.13-159.72-26.61-60.62-39.94-127.17-39.94-198.14V0H.03C.03,105.71,20,204.82,59.19,295.02c39.16,91.68,93.17,170.07,161.17,236.63,68.74,66.55,148.62,119.04,241.04,156.82,91.68,37.64,190.01,56.13,295.02,56.13s203.33-18.48,295.76-55.45c91.68-37.68,172.23-89.46,240.27-156.75,68.04-66.55,122.01-145.65,161.2-237.33,39.16-90.2,59.13-189.27,59.13-295.02L1512.75,0ZM229.24,1489.08v-1.48c0-70.97,13.32-137.52,39.94-198.14,26.61-61.36,62.84-114.59,110.13-159.72,47.32-45.1,102.78-79.84,167.11-105.71,64.39-25.87,134.56-38.45,209.98-38.45s145.62,12.58,210.72,38.45c65.07,25.87,120.52,60.65,167.11,105.71,46.58,45.1,83.55,98.36,110.17,159.72,26.61,60.62,39.9,127.17,39.9,198.14v1.48h228.46c0-105.71-19.97-204.82-59.13-295.02-39.2-91.68-93.17-170.82-161.2-237.33-68.04-67.29-148.62-119.04-240.27-156.75-92.42-36.9-190.75-55.45-295.76-55.45s-203.33,18.55-295.02,56.2c-92.42,37.71-172.27,90.2-241.04,156.75-68,66.55-122.01,144.91-161.17,236.59C20,1284.26,0,1383.33,0,1489.08h229.24Z"/>
</svg>