<?xml version="1.0" encoding="UTF-8"?>
<svg id="_Слой_1" data-name="Слой 1" xmlns="http://www.w3.org/2000/svg" xmlns:xlink="http://www.w3.org/1999/xlink" viewBox="0 0 1500 1489.69">
  <defs>
    <style>
      .cls-1 {
        fill: url(#_Безымянный_градиент_14);
      }

      .cls-1, .cls-2 {
        fill-rule: evenodd;
      }
    </style>
    <linearGradient id="_Безымянный_градиент_14" data-name="Безымянный градиент 14" x1="-1602.76" y1="2230.34" x2="-1602.76" y2="2256.25" gradientTransform="translate(41521.2 56915.54) scale(25.44 -25.04)" gradientUnits="userSpaceOnUse">
      <stop offset="0" stop-color="#01e8ab"/>
      <stop offset="1" stop-color="#29a6cb"/>
    </linearGradient>
  </defs>
  <path class="cls-1" d="M1079.45,420.54h-99.51v.65c0,30.91-5.79,59.9-17.38,86.3-11.59,26.74-27.7,49.91-47.99,69.57-20.29,19.64-44.44,34.78-72.79,46.05-28.36,11.28-58.95,16.73-91.78,16.73s-63.41-5.47-91.46-16.73c-28.02-11.27-52.17-26.42-72.79-46.05-20.61-19.64-36.38-42.83-47.97-69.57-11.59-26.4-17.4-55.39-17.4-86.3v-.65h-99.83c0,46.05,8.7,89.21,25.77,128.5,17.06,39.93,40.58,74.08,70.2,103.07,29.94,28.99,64.73,51.85,104.99,68.3,39.93,16.4,82.76,24.45,128.5,24.45s88.57-8.05,128.82-24.15c39.93-16.41,75.02-38.96,104.65-68.28,29.63-28.99,53.14-63.44,70.21-103.38,17.06-39.29,25.76-82.44,25.76-128.5h-.01ZM520.39,1069.13v-.65c0-30.91,5.8-59.9,17.4-86.3,11.59-26.73,27.37-49.91,47.97-69.57,20.61-19.64,44.77-34.78,72.79-46.05,28.05-11.27,58.61-16.75,91.46-16.75s63.43,5.48,91.78,16.75c28.34,11.27,52.5,26.42,72.79,46.05,20.29,19.64,36.39,42.84,47.99,69.57,11.59,26.4,17.38,55.39,17.38,86.3v.65h99.51c0-46.05-8.7-89.21-25.76-128.5-17.07-39.93-40.58-74.4-70.21-103.38-29.63-29.31-64.73-51.85-104.65-68.28-40.26-16.07-83.09-24.15-128.82-24.15s-88.57,8.08-128.5,24.48c-40.26,16.43-75.03,39.29-104.99,68.28-29.62,28.99-53.14,63.12-70.2,103.05-17.06,39.29-25.77,82.44-25.77,128.5h99.85Z"/>
  <path class="cls-2" d="M1080.15,324.41h-99.51v-.65c0-30.91-5.79-59.9-17.38-86.3-11.59-26.74-27.7-49.91-47.99-69.57-20.29-19.64-44.44-34.78-72.79-46.05-28.36-11.28-58.95-16.73-91.78-16.73s-63.41,5.47-91.46,16.73c-28.02,11.27-52.17,26.42-72.79,46.05-20.61,19.64-36.38,42.83-47.97,69.57-11.59,26.4-17.4,55.39-17.4,86.3v.65h-99.83c0-46.05,8.7-89.21,25.77-128.5,17.06-39.93,40.58-74.08,70.2-103.07,29.94-28.99,64.73-51.85,104.99-68.3,80.16-32.91,176.98-32.43,257.31-.28,39.93,16.41,75.02,38.96,104.65,68.28,29.63,28.99,53.14,63.44,70.21,103.38,17.06,39.29,25.76,82.44,25.76,128.5h0Z"/>
  <path class="cls-2" d="M1080.15,1165.28h-99.51v.65c0,30.91-5.79,59.9-17.38,86.3-11.59,26.74-27.7,49.91-47.99,69.57-20.29,19.64-44.44,34.78-72.79,46.05-28.36,11.28-58.95,16.73-91.78,16.73s-63.41-5.47-91.46-16.73c-28.02-11.27-52.17-26.42-72.79-46.05-20.61-19.64-36.38-42.83-47.97-69.57-11.59-26.4-17.4-55.39-17.4-86.3v-.65h-99.83c0,46.05,8.7,89.21,25.77,128.5,17.06,39.93,40.58,74.08,70.2,103.07,29.94,28.99,64.73,51.85,104.99,68.3,80.16,32.91,176.98,32.43,257.31.28,39.93-16.41,75.02-38.96,104.65-68.28,29.63-28.99,53.14-63.44,70.21-103.38,17.06-39.29,25.76-82.44,25.76-128.5h0Z"/>
  <path class="cls-2" d="M324.41,415.4v99.51h-.65c-30.91,0-59.9,5.79-86.3,17.38-26.74,11.59-49.91,27.7-69.57,47.99-19.64,20.29-34.78,44.44-46.05,72.79-11.28,28.36-16.73,58.95-16.73,91.78s5.47,63.41,16.73,91.46c11.27,28.02,26.42,52.17,46.05,72.79,19.64,20.61,42.83,36.38,69.57,47.97,26.4,11.59,55.39,17.4,86.3,17.4h.65v99.83c-46.05,0-89.21-8.7-128.5-25.77-39.93-17.06-74.08-40.58-103.07-70.2-28.99-29.94-51.85-64.73-68.31-104.99-32.91-80.16-32.43-176.98-.28-257.31,16.41-39.93,38.96-75.02,68.28-104.65,28.99-29.63,63.44-53.14,103.38-70.21,39.29-17.06,82.44-25.76,128.5-25.76Z"/>
  <path class="cls-2" d="M1175.59,415.4v99.51h.65c30.91,0,59.9,5.79,86.3,17.38,26.74,11.59,49.91,27.7,69.57,47.99,19.64,20.29,34.78,44.44,46.05,72.79,11.28,28.36,16.73,58.95,16.73,91.78s-5.47,63.41-16.73,91.46c-11.27,28.02-26.42,52.17-46.05,72.79-19.64,20.61-42.83,36.38-69.57,47.97-26.4,11.59-55.39,17.4-86.3,17.4h-.65v99.83c46.05,0,89.21-8.7,128.5-25.77,39.93-17.06,74.08-40.58,103.07-70.2,28.99-29.94,51.85-64.73,68.31-104.99,32.91-80.16,32.43-176.98.28-257.31-16.41-39.93-38.96-75.02-68.28-104.65-28.99-29.63-63.44-53.14-103.38-70.21-39.29-17.06-82.44-25.76-128.5-25.76Z"/>
</svg>