<?xml version="1.0" encoding="UTF-8"?>
<svg id="_Слой_1" data-name="Слой 1" xmlns="http://www.w3.org/2000/svg" xmlns:xlink="http://www.w3.org/1999/xlink" viewBox="0 0 1500 345.39">
  <defs>
    <style>
      .cls-1 {
        fill: url(#_Безымянный_градиент_14);
      }

      .cls-1, .cls-2 {
        fill-rule: evenodd;
      }
    </style>
    <linearGradient id="_Безымянный_градиент_14" data-name="Безымянный градиент 14" x1="1540" y1="1924.24" x2="1540" y2="1930.24" gradientTransform="translate(-38781.97 48429.56) scale(25.44 -25.04)" gradientUnits="userSpaceOnUse">
      <stop offset="0" stop-color="#01e8ab"/>
      <stop offset="1" stop-color="#29a6cb"/>
    </linearGradient>
  </defs>
  <path d="M272.59,157.02c-.4-5.28-1.94-10.32-4.64-15.11-2.69-4.8-6.25-9-10.67-12.61-4.42-3.61-9.5-6.5-15.24-8.65-5.74-2.16-11.8-3.23-18.18-3.23-5.6,0-11.05.85-16.34,2.56-5.3,1.71-10.13,4.23-14.5,7.55-4.37,3.33-8.15,7.45-11.33,12.39-3.2,4.94-5.53,10.64-7,17.09h97.89ZM298.35,169.09c0,1.37-.01,2.75-.07,4.12-.05,1.38-.17,3.44-.36,6.18h-124.52c.78,7.56,2.69,14.35,5.68,20.39,2.99,6.03,6.76,11.18,11.33,15.46,4.56,4.26,9.68,7.53,15.38,9.79,5.69,2.26,11.62,3.38,17.82,3.38,10.1,0,18.74-2.16,25.9-6.48,7.15-4.31,12.41-10.75,15.75-19.28h28.41c-2.16,6.87-5.37,13.3-9.64,19.28-4.27,5.99-9.42,11.21-15.46,15.69-6.04,4.46-12.82,7.97-20.32,10.52-7.51,2.55-15.53,3.82-24.07,3.82-10.9,0-20.97-2.06-30.25-6.18-9.27-4.12-17.35-9.76-24.21-16.93-6.88-7.16-12.26-15.55-16.12-25.16-3.88-9.63-5.82-19.93-5.82-30.92s1.94-21.3,5.82-30.91c3.86-9.61,9.24-18,16.12-25.17,6.87-7.16,14.94-12.83,24.21-17,9.28-4.17,19.35-6.25,30.25-6.25s20.74,2.07,29.82,6.18c9.07,4.12,16.89,9.64,23.48,16.55,6.57,6.93,11.7,14.95,15.36,24.08,3.67,9.12,5.5,18.74,5.5,28.85Z"/>
  <polygon points="503.2 97.54 528.37 97.54 528.37 159.66 611.11 159.66 611.11 97.54 636.27 97.54 636.27 247.85 611.11 247.85 611.11 183.07 528.37 183.07 528.37 247.85 503.2 247.85 503.2 97.54"/>
  <path class="cls-1" d="M469.2,97.54h-23.06v.15c0,7.16-1.34,13.88-4.03,20-2.69,6.2-6.42,11.57-11.12,16.12-4.7,4.55-10.3,8.06-16.87,10.67-6.57,2.61-13.66,3.88-21.27,3.88s-14.69-1.27-21.19-3.88c-6.49-2.61-12.09-6.12-16.87-10.67-4.78-4.55-8.43-9.92-11.12-16.12-2.69-6.12-4.03-12.84-4.03-20v-.15h-23.14c0,10.67,2.02,20.67,5.97,29.78,3.95,9.25,9.4,17.17,16.27,23.88,6.94,6.72,15,12.02,24.33,15.83,9.25,3.8,19.18,5.67,29.78,5.67s20.52-1.87,29.85-5.6c9.25-3.8,17.38-9.03,24.25-15.82,6.87-6.72,12.32-14.7,16.27-23.96,3.95-9.1,5.97-19.1,5.97-29.78h0ZM339.65,247.85v-.15c0-7.16,1.34-13.88,4.03-20,2.69-6.19,6.34-11.57,11.12-16.12,4.78-4.55,10.37-8.06,16.87-10.67,6.5-2.61,13.58-3.88,21.19-3.88s14.7,1.27,21.27,3.88c6.57,2.61,12.17,6.12,16.87,10.67,4.7,4.55,8.43,9.93,11.12,16.12,2.69,6.12,4.03,12.84,4.03,20v.15h23.06c0-10.67-2.02-20.67-5.97-29.78-3.96-9.25-9.4-17.24-16.27-23.96-6.87-6.79-15-12.02-24.25-15.82-9.33-3.72-19.25-5.6-29.85-5.6s-20.52,1.87-29.78,5.67c-9.33,3.81-17.39,9.1-24.33,15.82-6.86,6.72-12.31,14.63-16.27,23.88-3.95,9.1-5.97,19.1-5.97,29.78h23.14Z"/>
  <path d="M950.84,226.35v-107.02h-58.59l-1.91,33.13c-.59,8.93-1.54,16.98-2.88,24.14-1.32,7.17-2.99,13.71-4.99,19.65-2.02,5.94-4.35,11.36-7.01,16.27-2.64,4.91-5.55,9.52-8.68,13.84,0,0,84.06,0,84.06,0ZM828.36,226.35h12.51c6.97-9.22,12.72-20.44,17.23-33.64,4.51-13.19,7.36-29.27,8.53-48.21l3.09-46.81h106.29v128.66h15.32v55.79h-25.18v-34.29h-112.47v34.29h-25.32v-55.79h0Z"/>
  <path d="M1126.55,157.02c-.39-5.28-1.94-10.32-4.64-15.11-2.71-4.8-6.25-9-10.68-12.61-4.4-3.61-9.5-6.5-15.23-8.65-5.74-2.16-11.8-3.23-18.17-3.23-5.61,0-11.05.85-16.35,2.56-5.3,1.71-10.13,4.23-14.5,7.55-4.36,3.33-8.15,7.45-11.33,12.39-3.18,4.94-5.52,10.64-6.98,17.09h97.89ZM1152.3,169.09c0,1.37-.03,2.75-.07,4.12-.05,1.38-.17,3.44-.36,6.18h-124.52c.78,7.56,2.67,14.35,5.66,20.39,3,6.03,6.77,11.18,11.33,15.46,4.56,4.26,9.7,7.53,15.38,9.79,5.69,2.26,11.64,3.38,17.82,3.38,10.1,0,18.74-2.16,25.9-6.48,7.17-4.31,12.41-10.75,15.76-19.28h28.41c-2.17,6.87-5.39,13.3-9.65,19.28-4.26,5.99-9.41,11.21-15.46,15.69-6.03,4.46-12.8,7.97-20.32,10.52-7.49,2.55-15.53,3.82-24.06,3.82-10.9,0-20.98-2.06-30.26-6.18-9.27-4.12-17.35-9.76-24.22-16.93-6.86-7.16-12.24-15.55-16.12-25.16-3.88-9.63-5.82-19.93-5.82-30.92s1.94-21.3,5.82-30.91c3.88-9.61,9.26-18,16.12-25.17,6.87-7.16,14.94-12.83,24.22-17,9.28-4.17,19.36-6.25,30.26-6.25s20.73,2.07,29.8,6.18c9.07,4.12,16.9,9.64,23.48,16.55,6.58,6.93,11.7,14.95,15.36,24.08,3.68,9.12,5.51,18.74,5.51,28.85h0Z"/>
  <path d="M1164.15,247.84v-21.79h5.6c7.36,0,12.8-2.55,16.33-7.65,3.55-5.1,5.31-12.08,5.31-20.91v-99.8h132.2v150.15h-25.47V119.33h-81.42v79.2c0,8.05-1.12,15.14-3.38,21.27-2.25,6.14-5.37,11.29-9.35,15.46-3.97,4.17-8.74,7.3-14.27,9.42-5.55,2.11-11.67,3.16-18.33,3.16h-7.22Z"/>
  <path d="M1421.98,228.12c7.45,0,14.39-1.4,20.82-4.18,6.44-2.79,11.99-6.63,16.71-11.52,4.71-4.89,8.41-10.75,11.12-17.55,2.7-6.81,4.05-14.17,4.05-22.1s-1.35-15.28-4.05-22.02c-2.71-6.75-6.41-12.6-11.12-17.54-4.71-4.94-10.27-8.81-16.71-11.6-6.43-2.79-13.37-4.19-20.82-4.19s-14.44,1.39-20.91,4.19c-6.49,2.79-12.09,6.65-16.87,11.6-4.75,4.94-8.49,10.79-11.19,17.54-2.69,6.75-4.04,14.1-4.04,22.02s1.35,15.3,4.04,22.1c2.7,6.8,6.43,12.65,11.19,17.55,4.77,4.88,10.38,8.73,16.87,11.52,6.47,2.79,13.43,4.18,20.91,4.18h0ZM1421.68,252.12c-11.09,0-21.4-2.07-30.91-6.19-9.52-4.12-17.77-9.76-24.73-16.93-6.97-7.17-12.44-15.58-16.42-25.25-3.97-9.67-5.96-19.99-5.96-30.98s1.96-21.3,5.88-30.91c3.93-9.61,9.38-18,16.35-25.17,6.97-7.16,15.2-12.83,24.72-17,9.52-4.17,19.88-6.25,31.06-6.25s21.57,2.07,31.14,6.18c9.57,4.12,17.83,9.77,24.8,16.93,6.97,7.17,12.44,15.59,16.41,25.25,3.99,9.67,5.97,19.99,5.97,30.99s-1.97,21.32-5.9,30.98c-3.92,9.67-9.39,18.08-16.41,25.25-7.02,7.17-15.31,12.81-24.88,16.93-9.57,4.12-19.95,6.19-31.14,6.19Z"/>
  <polygon points="138.12 97.57 138.12 119.06 82.6 119.06 82.6 247.84 57.08 247.84 57.08 119.06 0 119.06 0 97.57 138.12 97.57"/>
  <path d="M791.08,194.86c-2.72,6.83-6.36,12.65-11.1,17.53-4.73,4.88-10.32,8.76-16.75,11.56-6.36,2.79-13.34,4.19-20.79,4.19h-.16c-7.37,0-14.35-1.4-20.79-4.19-6.44-2.79-12.1-6.67-16.83-11.56-4.73-4.89-8.46-10.71-11.17-17.53-2.72-6.83-4.03-14.2-4.03-22.11s1.32-15.28,4.03-22.03c2.71-6.75,6.44-12.57,11.17-17.53,4.73-4.97,10.39-8.77,16.83-11.56,6.44-2.79,13.42-4.19,20.79-4.19h.16c7.45,0,14.43,1.39,20.79,4.19,6.44,2.79,12.03,6.59,16.75,11.56,4.73,4.97,8.38,10.78,11.1,17.53,2.71,6.75,4.03,14.12,4.03,22.03s-1.32,15.28-4.03,22.11ZM814.51,141.8c-3.95-9.7-9.46-18.07-16.45-25.29-6.98-7.14-15.2-12.8-24.82-16.91-9.46-4.11-19.86-6.21-30.95-6.21h-.15c-11.17,0-21.56,2.1-31.03,6.29-9.54,4.19-17.77,9.85-24.75,16.99-6.98,7.21-12.41,15.59-16.37,25.21-3.88,9.62-5.9,19.86-5.9,30.88s2.02,21.33,5.97,31.03c3.96,9.62,9.46,18.07,16.45,25.21,6.98,7.14,15.2,12.8,24.67,16.91,9.54,4.11,19.86,6.2,30.95,6.2h.15c11.09,0,21.49-2.1,30.95-6.2,9.62-4.11,17.92-9.78,24.9-16.91,7.06-7.14,12.49-15.59,16.45-25.21,3.88-9.7,5.82-20.01,5.82-31.03s-1.94-21.33-5.9-30.95h0Z"/>
  <path class="cls-2" d="M469.2,75.18h-23.06v-.15c0-7.16-1.34-13.88-4.03-20-2.69-6.2-6.42-11.57-11.12-16.12-4.7-4.55-10.3-8.06-16.87-10.67-6.57-2.61-13.66-3.88-21.27-3.88s-14.69,1.27-21.19,3.88c-6.49,2.61-12.09,6.12-16.87,10.67-4.78,4.55-8.43,9.92-11.12,16.12-2.69,6.12-4.03,12.84-4.03,20v.15h-23.14c0-10.67,2.02-20.67,5.97-29.78,3.95-9.25,9.4-17.17,16.27-23.88,6.94-6.72,15-12.02,24.33-15.83,18.58-7.63,41.01-7.51,59.63-.06,9.25,3.8,17.38,9.03,24.25,15.82,6.87,6.72,12.32,14.7,16.27,23.96,3.95,9.1,5.97,19.1,5.97,29.78Z"/>
  <path class="cls-2" d="M469.2,270.22h-23.06v.15c0,7.16-1.34,13.88-4.03,20-2.69,6.2-6.42,11.57-11.12,16.12-4.7,4.55-10.3,8.06-16.87,10.67-6.57,2.61-13.66,3.88-21.27,3.88s-14.69-1.27-21.19-3.88c-6.49-2.61-12.09-6.12-16.87-10.67-4.78-4.55-8.43-9.92-11.12-16.12-2.69-6.12-4.03-12.84-4.03-20v-.15h-23.14c0,10.67,2.02,20.67,5.97,29.78,3.95,9.25,9.4,17.17,16.27,23.88,6.94,6.72,15,12.02,24.33,15.83,18.58,7.63,41.01,7.51,59.63.06,9.25-3.8,17.38-9.03,24.25-15.82,6.87-6.72,12.32-14.7,16.27-23.96,3.95-9.1,5.97-19.1,5.97-29.78h0Z"/>
</svg>